<svg width="13" height="16" viewBox="0 0 13 16" fill="none" xmlns="http://www.w3.org/2000/svg">
<path d="M1.33095 16C1.10872 16 0.928572 15.8064 0.928572 15.5676V3.45946C0.928572 3.22063 1.10872 3.02703 1.33095 3.02703H11.669C11.8913 3.02703 12.0714 3.22063 12.0714 3.45946V15.5676C12.0714 15.8064 11.8913 16 11.669 16H1.33095ZM11.2667 15.1351V3.89189H1.73334V15.1351H11.2667ZM12.5976 0.864865C12.8198 0.864865 13 1.05847 13 1.2973V3.45946C13 3.69829 12.8198 3.89189 12.5976 3.89189H0.402381C0.180152 3.89189 0 3.69829 0 3.45946V1.2973C0 1.05847 0.180152 0.864865 0.402381 0.864865H3.54762L4.23453 0.126656C4.30999 0.0455594 4.41233 0 4.51905 0H8.48096C8.58768 0 8.69003 0.0455594 8.76549 0.126656L9.4524 0.864865H12.5976ZM9.28572 1.72973C9.17901 1.72973 9.07666 1.68417 9.0012 1.60307L8.31429 0.864865H4.68572L3.99882 1.60307C3.92335 1.68417 3.82101 1.72973 3.71429 1.72973H0.804763V3.02703H12.1952V1.72973H9.28572Z" fill="#A9B1D1"/>
<path d="M3.71429 5.83784V13.1892C3.71429 13.428 3.89444 13.6216 4.11667 13.6216C4.3389 13.6216 4.51905 13.428 4.51905 13.1892V5.83784C4.51905 5.59901 4.3389 5.40541 4.11667 5.40541C3.89444 5.40541 3.71429 5.59901 3.71429 5.83784Z" fill="#A9B1D1"/>
<path d="M6.12858 5.83784V13.1892C6.12858 13.428 6.30873 13.6216 6.53096 13.6216C6.75319 13.6216 6.93334 13.428 6.93334 13.1892V5.83784C6.93334 5.59901 6.75319 5.40541 6.53096 5.40541C6.30873 5.40541 6.12858 5.59901 6.12858 5.83784Z" fill="#A9B1D1"/>
<path d="M8.54287 5.83784V13.1892C8.54287 13.428 8.72302 13.6216 8.94525 13.6216C9.16748 13.6216 9.34763 13.428 9.34763 13.1892V5.83784C9.34763 5.59901 9.16748 5.40541 8.94525 5.40541C8.72302 5.40541 8.54287 5.59901 8.54287 5.83784Z" fill="#A9B1D1"/>
</svg>
