<svg width="22" height="22" viewBox="0 0 22 22" fill="none" xmlns="http://www.w3.org/2000/svg">
<path d="M11 0C4.93477 0 0 4.93435 0 11C0 17.0657 4.93477 22 11 22C17.0652 22 22 17.0657 22 11C22 4.93435 17.0652 0 11 0ZM11 21.1538C5.40142 21.1538 0.846154 16.5986 0.846154 11C0.846154 5.40142 5.40142 0.846154 11 0.846154C16.5986 0.846154 21.1538 5.40142 21.1538 11C21.1538 16.5986 16.5986 21.1538 11 21.1538Z" fill="#939DFF"/>
<path d="M14.7135 10.8056H11.3061V7.5463C11.3061 7.38244 11.1733 7.25 11.0098 7.25C10.8462 7.25 10.7135 7.38244 10.7135 7.5463V10.8056H7.30606C7.14251 10.8056 7.00977 10.938 7.00977 11.1019C7.00977 11.2657 7.14251 11.3981 7.30606 11.3981H10.7135V14.9537C10.7135 15.1176 10.8462 15.25 11.0098 15.25C11.1733 15.25 11.3061 15.1176 11.3061 14.9537V11.3981H14.7135C14.877 11.3981 15.0098 11.2657 15.0098 11.1019C15.0098 10.938 14.877 10.8056 14.7135 10.8056Z" fill="#939DFF" stroke="#939DFF" stroke-width="0.5"/>
</svg>
