<svg width="64" height="64" viewBox="0 0 64 64" fill="none" xmlns="http://www.w3.org/2000/svg">
<ellipse cx="37.647" cy="58.6365" rx="26.353" ry="5.36337" fill="#F0F2FA"/>
<path d="M46.0992 50.758L41.5952 53.2411L41.9248 51.89L46.0992 50.758Z" fill="#57617F"/>
<path d="M23.2867 1.42328L19.1123 3.72382L22.2248 5.29404L24.2387 2.92046L23.2867 1.42328Z" fill="#F97A7A"/>
<path d="M25.8496 37.8312C28.0466 43.5278 31.1225 48.8957 35.0039 53.7524C46.099 53.7524 55.5096 45.6092 57.0842 34.6543L58.9151 21.91L54.7407 24.247L25.8496 37.8312Z" fill="#57617F"/>
<path d="M23.2866 1.42415L22.4078 7.705C20.9431 17.9662 22.1881 28.3369 25.8498 37.8677L54.6677 24.247L58.842 21.91L42.6572 0L23.2866 1.42415Z" fill="#F97A7A"/>
<path d="M27.0582 48.9324C20.1376 40.278 17.0617 28.9943 18.6363 18.0394L20.4671 5.18553L37.7505 3.94397L53.0565 24.6489L51.3355 36.7724C49.9441 46.6684 41.4855 54.1908 31.5255 54.556L27.0582 48.9324Z" fill="#FDFDFD"/>
<path d="M36.9814 5.5138L51.4453 25.0137L49.7975 36.5164C49.1384 41.081 46.8681 45.2804 43.3895 48.2747C40.277 50.9769 36.3589 52.6202 32.2212 52.9123L28.2665 47.9461C21.6022 39.6203 18.6362 28.7749 20.1375 18.2216L21.7853 6.60929L36.9814 5.5138ZM38.4827 2.33685L19.1122 3.761L17.0982 17.8199C15.4505 29.2496 18.6362 40.8619 25.8498 49.918L30.7931 56.0893C41.8882 56.0893 51.2988 47.9461 52.8734 36.9911L54.7042 24.2468L38.4827 2.33685Z" fill="#FFB75E"/>
<path d="M30.4243 31.3845C30.311 31.3845 30.2119 31.4607 30.1827 31.5702C30.168 31.6257 30.1731 31.6827 30.1945 31.7327V33.8619C30.1945 33.9513 30.2423 34.034 30.3198 34.0786L39.9785 39.6372C40.0559 39.6817 40.1511 39.6816 40.2284 39.6369C40.3056 39.5922 40.3532 39.5097 40.3532 39.4205V37.193C40.3532 37.1036 40.3054 37.0209 40.2279 36.9763L37.2141 35.2424V20.1762C37.2141 20.0865 37.1661 20.0037 37.0883 19.9592L34.6334 18.5545C34.5759 18.5216 34.5077 18.5129 34.4438 18.5302L29.1114 19.975C29.0384 19.9948 28.9783 20.0465 28.9479 20.1157C28.9175 20.1849 28.92 20.2642 28.9548 20.3313L29.8967 22.15C29.9752 22.328 30.1009 22.4742 30.2356 22.6278C30.3721 22.7864 30.538 22.9303 30.7354 23.0287C30.7529 23.0374 30.7741 23.0484 30.7966 23.0599C30.8341 23.0792 30.8751 23.1004 30.9082 23.1161C30.968 23.1445 31.0399 23.1746 31.12 23.1906L31.12 23.1907L31.1279 23.192C31.2728 23.2161 31.4044 23.2176 31.5397 23.1906L31.5398 23.1909L31.5527 23.1877L33.7405 22.6291C33.7268 22.9314 33.7159 23.2292 33.7159 23.5274V33.2301L30.6244 31.4609C30.5789 31.4138 30.5151 31.3845 30.4445 31.3845H30.4243Z" fill="#EF3F54" stroke="#EF3F54" stroke-width="0.5" stroke-linecap="round" stroke-linejoin="round"/>
<path d="M7.24219 55.1579C11.2419 55.1579 14.4844 53.1002 14.4844 50.5619C14.4844 48.0236 11.2419 45.9659 7.24219 45.9659C3.24244 45.9659 0 48.0236 0 50.5619C0 53.1002 3.24244 55.1579 7.24219 55.1579Z" fill="#FFB75E"/>
<path d="M14.4844 47.6741H0V50.563H14.4844V47.6741Z" fill="#FFB75E"/>
<path d="M7.24219 52.2691C11.2419 52.2691 14.4844 50.2114 14.4844 47.6731C14.4844 45.1348 11.2419 43.0771 7.24219 43.0771C3.24244 43.0771 0 45.1348 0 47.6731C0 50.2114 3.24244 52.2691 7.24219 52.2691Z" fill="#FFD385"/>
<path d="M7.24219 50.5627C11.2419 50.5627 14.4844 48.505 14.4844 45.9667C14.4844 43.4284 11.2419 41.3707 7.24219 41.3707C3.24244 41.3707 0 43.4284 0 45.9667C0 48.505 3.24244 50.5627 7.24219 50.5627Z" fill="#FFB75E"/>
<path d="M14.4844 43.0771H0V45.966H14.4844V43.0771Z" fill="#FFB75E"/>
<path d="M7.24219 47.6741C11.2419 47.6741 14.4844 45.6164 14.4844 43.0782C14.4844 40.5399 11.2419 38.4822 7.24219 38.4822C3.24244 38.4822 0 40.5399 0 43.0782C0 45.6164 3.24244 47.6741 7.24219 47.6741Z" fill="#FFD385"/>
<path d="M7.24219 45.772C11.2419 45.772 14.4844 43.7143 14.4844 41.176C14.4844 38.6377 11.2419 36.58 7.24219 36.58C3.24244 36.58 0 38.6377 0 41.176C0 43.7143 3.24244 45.772 7.24219 45.772Z" fill="#FFB75E"/>
<path d="M14.4844 38.2882H0V41.1771H14.4844V38.2882Z" fill="#FFB75E"/>
<path d="M7.24219 42.8837C11.2419 42.8837 14.4844 40.826 14.4844 38.2877C14.4844 35.7494 11.2419 33.6917 7.24219 33.6917C3.24244 33.6917 0 35.7494 0 38.2877C0 40.826 3.24244 42.8837 7.24219 42.8837Z" fill="#FFD385"/>
<path d="M7.24219 41.1769C11.2419 41.1769 14.4844 39.1192 14.4844 36.5809C14.4844 34.0426 11.2419 31.9849 7.24219 31.9849C3.24244 31.9849 0 34.0426 0 36.5809C0 39.1192 3.24244 41.1769 7.24219 41.1769Z" fill="#FFB75E"/>
<path d="M14.4844 33.6917H0V36.5806H14.4844V33.6917Z" fill="#FFB75E"/>
<path d="M7.24219 38.2881C11.2419 38.2881 14.4844 36.2304 14.4844 33.6921C14.4844 31.1538 11.2419 29.0961 7.24219 29.0961C3.24244 29.0961 0 31.1538 0 33.6921C0 36.2304 3.24244 38.2881 7.24219 38.2881Z" fill="#FFD385"/>
</svg>
